<mxfile host="app.diagrams.net" modified="2024-01-12T20:29:41.215Z" agent="Mozilla/5.0 (Windows NT 10.0; Win64; x64) AppleWebKit/537.36 (KHTML, like Gecko) Chrome/120.0.0.0 Safari/537.36" etag="DS3UxsWADumU3D-KX2e5" version="22.1.18" type="github">
  <diagram id="C5RBs43oDa-KdzZeNtuy" name="Page-1">
    <mxGraphModel dx="1121" dy="735" grid="1" gridSize="10" guides="1" tooltips="1" connect="1" arrows="1" fold="1" page="1" pageScale="1" pageWidth="827" pageHeight="1169" math="0" shadow="0">
      <root>
        <mxCell id="WIyWlLk6GJQsqaUBKTNV-0" />
        <mxCell id="WIyWlLk6GJQsqaUBKTNV-1" parent="WIyWlLk6GJQsqaUBKTNV-0" />
        <mxCell id="Iqlkm1gyf8qVNkgm4pbM-0" style="edgeStyle=orthogonalEdgeStyle;rounded=0;orthogonalLoop=1;jettySize=auto;html=1;exitX=0.5;exitY=1;exitDx=0;exitDy=0;entryX=0.5;entryY=0;entryDx=0;entryDy=0;" edge="1" parent="WIyWlLk6GJQsqaUBKTNV-1" source="Iqlkm1gyf8qVNkgm4pbM-1" target="Iqlkm1gyf8qVNkgm4pbM-3">
          <mxGeometry relative="1" as="geometry" />
        </mxCell>
        <mxCell id="Iqlkm1gyf8qVNkgm4pbM-1" value="CREAR CLASS obtenerTerminal" style="rounded=1;whiteSpace=wrap;html=1;fontSize=12;glass=0;strokeWidth=1;shadow=0;" vertex="1" parent="WIyWlLk6GJQsqaUBKTNV-1">
          <mxGeometry x="67.5" width="120" height="40" as="geometry" />
        </mxCell>
        <mxCell id="Iqlkm1gyf8qVNkgm4pbM-2" style="edgeStyle=orthogonalEdgeStyle;rounded=0;orthogonalLoop=1;jettySize=auto;html=1;exitX=0.5;exitY=1;exitDx=0;exitDy=0;entryX=0.5;entryY=0;entryDx=0;entryDy=0;" edge="1" parent="WIyWlLk6GJQsqaUBKTNV-1" source="Iqlkm1gyf8qVNkgm4pbM-3" target="Iqlkm1gyf8qVNkgm4pbM-5">
          <mxGeometry relative="1" as="geometry" />
        </mxCell>
        <mxCell id="Iqlkm1gyf8qVNkgm4pbM-3" value="CREAR METODO GET&amp;nbsp;Listar_Terminal" style="rounded=1;whiteSpace=wrap;html=1;" vertex="1" parent="WIyWlLk6GJQsqaUBKTNV-1">
          <mxGeometry x="62.5" y="70" width="130" height="50" as="geometry" />
        </mxCell>
        <mxCell id="Iqlkm1gyf8qVNkgm4pbM-4" value="" style="edgeStyle=orthogonalEdgeStyle;rounded=0;orthogonalLoop=1;jettySize=auto;html=1;" edge="1" parent="WIyWlLk6GJQsqaUBKTNV-1" source="Iqlkm1gyf8qVNkgm4pbM-5" target="Iqlkm1gyf8qVNkgm4pbM-8">
          <mxGeometry relative="1" as="geometry" />
        </mxCell>
        <mxCell id="Iqlkm1gyf8qVNkgm4pbM-5" value="CREAR METODO Listar_Terminal EN Metodos.cs" style="rounded=1;whiteSpace=wrap;html=1;" vertex="1" parent="WIyWlLk6GJQsqaUBKTNV-1">
          <mxGeometry x="62.5" y="150" width="130" height="50" as="geometry" />
        </mxCell>
        <mxCell id="Iqlkm1gyf8qVNkgm4pbM-6" value="INICIO" style="strokeWidth=2;html=1;shape=mxgraph.flowchart.start_2;whiteSpace=wrap;" vertex="1" parent="WIyWlLk6GJQsqaUBKTNV-1">
          <mxGeometry x="102.5" y="230" width="50" height="50" as="geometry" />
        </mxCell>
        <mxCell id="Iqlkm1gyf8qVNkgm4pbM-7" value="" style="edgeStyle=orthogonalEdgeStyle;rounded=0;orthogonalLoop=1;jettySize=auto;html=1;" edge="1" parent="WIyWlLk6GJQsqaUBKTNV-1" source="Iqlkm1gyf8qVNkgm4pbM-8" target="Iqlkm1gyf8qVNkgm4pbM-10">
          <mxGeometry relative="1" as="geometry" />
        </mxCell>
        <mxCell id="Iqlkm1gyf8qVNkgm4pbM-8" value="res = &quot;&quot;,&lt;br&gt;version = 0,&lt;br&gt;dateCreated = DateTime.Now&lt;br&gt;lastUpdate = DateTime.Now&lt;br&gt;tbl = new datatable()&lt;br&gt;oListaTerminal = new list&lt;br&gt;cont = 0&lt;br&gt;qry = INNER JOIN" style="rounded=0;whiteSpace=wrap;html=1;" vertex="1" parent="WIyWlLk6GJQsqaUBKTNV-1">
          <mxGeometry x="40" y="300" width="175" height="130" as="geometry" />
        </mxCell>
        <mxCell id="Iqlkm1gyf8qVNkgm4pbM-9" style="edgeStyle=orthogonalEdgeStyle;rounded=0;orthogonalLoop=1;jettySize=auto;html=1;exitX=0.5;exitY=1;exitDx=0;exitDy=0;exitPerimeter=0;entryX=0.5;entryY=0;entryDx=0;entryDy=0;" edge="1" parent="WIyWlLk6GJQsqaUBKTNV-1" source="Iqlkm1gyf8qVNkgm4pbM-10" target="Iqlkm1gyf8qVNkgm4pbM-12">
          <mxGeometry relative="1" as="geometry" />
        </mxCell>
        <mxCell id="Iqlkm1gyf8qVNkgm4pbM-10" value="try catch" style="strokeWidth=2;html=1;shape=mxgraph.flowchart.decision;whiteSpace=wrap;" vertex="1" parent="WIyWlLk6GJQsqaUBKTNV-1">
          <mxGeometry x="77.5" y="480" width="100" height="100" as="geometry" />
        </mxCell>
        <mxCell id="Iqlkm1gyf8qVNkgm4pbM-11" value="LISTA DE OBJETOS &#39;obtenerTerminal&amp;nbsp;&#39;" style="strokeWidth=2;html=1;shape=mxgraph.flowchart.display;whiteSpace=wrap;" vertex="1" parent="WIyWlLk6GJQsqaUBKTNV-1">
          <mxGeometry x="170" y="900" width="160" height="60" as="geometry" />
        </mxCell>
        <mxCell id="Iqlkm1gyf8qVNkgm4pbM-12" value="mandaQry" style="verticalLabelPosition=bottom;verticalAlign=top;html=1;shape=process;whiteSpace=wrap;rounded=1;size=0.14;arcSize=6;" vertex="1" parent="WIyWlLk6GJQsqaUBKTNV-1">
          <mxGeometry x="77.5" y="610" width="100" height="20" as="geometry" />
        </mxCell>
        <mxCell id="Iqlkm1gyf8qVNkgm4pbM-13" style="edgeStyle=orthogonalEdgeStyle;rounded=0;orthogonalLoop=1;jettySize=auto;html=1;entryX=0.5;entryY=0;entryDx=0;entryDy=0;entryPerimeter=0;" edge="1" parent="WIyWlLk6GJQsqaUBKTNV-1" source="Iqlkm1gyf8qVNkgm4pbM-12" target="Iqlkm1gyf8qVNkgm4pbM-15">
          <mxGeometry relative="1" as="geometry">
            <mxPoint x="127.57000000000016" y="699.9799999999998" as="targetPoint" />
          </mxGeometry>
        </mxCell>
        <mxCell id="Iqlkm1gyf8qVNkgm4pbM-14" style="edgeStyle=orthogonalEdgeStyle;rounded=0;orthogonalLoop=1;jettySize=auto;html=1;exitX=0.5;exitY=1;exitDx=0;exitDy=0;exitPerimeter=0;entryX=0.5;entryY=0;entryDx=0;entryDy=0;" edge="1" parent="WIyWlLk6GJQsqaUBKTNV-1" source="Iqlkm1gyf8qVNkgm4pbM-15" target="Iqlkm1gyf8qVNkgm4pbM-20">
          <mxGeometry relative="1" as="geometry">
            <mxPoint x="128.75" y="760" as="targetPoint" />
          </mxGeometry>
        </mxCell>
        <mxCell id="Iqlkm1gyf8qVNkgm4pbM-15" value="if cont == 0" style="strokeWidth=2;html=1;shape=mxgraph.flowchart.decision;whiteSpace=wrap;" vertex="1" parent="WIyWlLk6GJQsqaUBKTNV-1">
          <mxGeometry x="90" y="670" width="75" height="70" as="geometry" />
        </mxCell>
        <mxCell id="Iqlkm1gyf8qVNkgm4pbM-16" value="&quot;No hay registros&quot;" style="strokeWidth=2;html=1;shape=mxgraph.flowchart.start_1;whiteSpace=wrap;" vertex="1" parent="WIyWlLk6GJQsqaUBKTNV-1">
          <mxGeometry x="290" y="672.5" width="120" height="65" as="geometry" />
        </mxCell>
        <mxCell id="Iqlkm1gyf8qVNkgm4pbM-17" style="edgeStyle=orthogonalEdgeStyle;rounded=0;orthogonalLoop=1;jettySize=auto;html=1;exitX=1;exitY=0.5;exitDx=0;exitDy=0;exitPerimeter=0;entryX=0;entryY=0.5;entryDx=0;entryDy=0;entryPerimeter=0;" edge="1" parent="WIyWlLk6GJQsqaUBKTNV-1" source="Iqlkm1gyf8qVNkgm4pbM-15" target="Iqlkm1gyf8qVNkgm4pbM-16">
          <mxGeometry relative="1" as="geometry" />
        </mxCell>
        <mxCell id="Iqlkm1gyf8qVNkgm4pbM-18" value="" style="edgeStyle=orthogonalEdgeStyle;rounded=0;orthogonalLoop=1;jettySize=auto;html=1;exitX=1;exitY=0.5;exitDx=0;exitDy=0;exitPerimeter=0;entryX=0;entryY=0.5;entryDx=0;entryDy=0;entryPerimeter=0;" edge="1" parent="WIyWlLk6GJQsqaUBKTNV-1" source="Iqlkm1gyf8qVNkgm4pbM-10" target="Iqlkm1gyf8qVNkgm4pbM-19">
          <mxGeometry relative="1" as="geometry">
            <mxPoint x="178" y="530" as="sourcePoint" />
            <mxPoint x="530" y="530" as="targetPoint" />
          </mxGeometry>
        </mxCell>
        <mxCell id="Iqlkm1gyf8qVNkgm4pbM-19" value="return res = ex.Message" style="strokeWidth=2;html=1;shape=mxgraph.flowchart.start_1;whiteSpace=wrap;" vertex="1" parent="WIyWlLk6GJQsqaUBKTNV-1">
          <mxGeometry x="520" y="500" width="90" height="60" as="geometry" />
        </mxCell>
        <mxCell id="Iqlkm1gyf8qVNkgm4pbM-20" value="OBJETO&amp;nbsp;obtenerTerminal CON PROPIEDADES DE&amp;nbsp;&lt;code style=&quot;border: 0px solid rgb(57, 62, 64); box-sizing: border-box; --tw-border-spacing-x: 0; --tw-border-spacing-y: 0; --tw-translate-x: 0; --tw-translate-y: 0; --tw-rotate: 0; --tw-skew-x: 0; --tw-skew-y: 0; --tw-scale-x: 1; --tw-scale-y: 1; --tw-pan-x: ; --tw-pan-y: ; --tw-pinch-zoom: ; --tw-scroll-snap-strictness: proximity; --tw-gradient-from-position: ; --tw-gradient-via-position: ; --tw-gradient-to-position: ; --tw-ordinal: ; --tw-slashed-zero: ; --tw-numeric-figure: ; --tw-numeric-spacing: ; --tw-numeric-fraction: ; --tw-ring-inset: ; --tw-ring-offset-width: 0px; --tw-ring-offset-color: #fff; --tw-ring-color: rgba(69,89,164,.5); --tw-ring-offset-shadow: 0 0 transparent; --tw-ring-shadow: 0 0 transparent; --tw-shadow: 0 0 transparent; --tw-shadow-colored: 0 0 transparent; --tw-blur: ; --tw-brightness: ; --tw-contrast: ; --tw-grayscale: ; --tw-hue-rotate: ; --tw-invert: ; --tw-saturate: ; --tw-sepia: ; --tw-drop-shadow: ; --tw-backdrop-blur: ; --tw-backdrop-brightness: ; --tw-backdrop-contrast: ; --tw-backdrop-grayscale: ; --tw-backdrop-hue-rotate: ; --tw-backdrop-invert: ; --tw-backdrop-opacity: ; --tw-backdrop-saturate: ; --tw-backdrop-sepia: ; --darkreader-bg--tw-ring-offset-width: 0px; --darkreader-bg--tw-ring-offset-color: #181a1b; --darkreader-bg--tw-ring-color: rgba(55, 71, 131, 0.5); --darkreader-bg--tw-ring-offset-shadow: 0 0 transparent; --darkreader-bg--tw-ring-shadow: 0 0 transparent; --darkreader-bg--tw-shadow: 0 0 transparent; font-size: 0.875em; color: var(--darkreader-text--tw-prose-code); font-family: &amp;quot;SÃ¶hne Mono&amp;quot;, Monaco, &amp;quot;Andale Mono&amp;quot;, &amp;quot;Ubuntu Mono&amp;quot;, monospace !important;&quot;&gt;oListaTerminal&lt;/code&gt;" style="shape=process;whiteSpace=wrap;html=1;backgroundOutline=1;" vertex="1" parent="WIyWlLk6GJQsqaUBKTNV-1">
          <mxGeometry x="48.75" y="780" width="157.5" height="80" as="geometry" />
        </mxCell>
        <mxCell id="Iqlkm1gyf8qVNkgm4pbM-21" style="edgeStyle=orthogonalEdgeStyle;rounded=0;orthogonalLoop=1;jettySize=auto;html=1;exitX=0.5;exitY=1;exitDx=0;exitDy=0;entryX=0;entryY=0.5;entryDx=0;entryDy=0;entryPerimeter=0;" edge="1" parent="WIyWlLk6GJQsqaUBKTNV-1" source="Iqlkm1gyf8qVNkgm4pbM-20" target="Iqlkm1gyf8qVNkgm4pbM-11">
          <mxGeometry relative="1" as="geometry" />
        </mxCell>
      </root>
    </mxGraphModel>
  </diagram>
</mxfile>
